<svg width="16" height="16" viewBox="0 0 16 16" fill="none" xmlns="http://www.w3.org/2000/svg">
<path d="M5.99999 12L2.09999 7.70001C1.89741 7.56398 1.65209 7.50673 1.41023 7.53901C1.16837 7.57129 0.94666 7.69089 0.786852 7.87529C0.627045 8.05968 0.540171 8.29614 0.542591 8.54013C0.54501 8.78413 0.636557 9.01882 0.799989 9.20001L5.29999 14.2C5.39383 14.3064 5.50924 14.3916 5.63855 14.45C5.76786 14.5084 5.90811 14.5386 6.04999 14.5386C6.19186 14.5386 6.33212 14.5084 6.46143 14.45C6.59074 14.3916 6.70615 14.3064 6.79999 14.2L15.3 3.20001C15.4724 2.98783 15.5534 2.71587 15.5253 2.44394C15.4972 2.17201 15.3622 1.9224 15.15 1.75001C14.9378 1.57762 14.6659 1.49657 14.3939 1.5247C14.122 1.55283 13.8724 1.68783 13.7 1.90001L5.99999 11.9V12Z" fill="black"/>
</svg>
