<svg width="16" height="16" viewBox="0 0 16 16" fill="none" xmlns="http://www.w3.org/2000/svg">
<path fill-rule="evenodd" clip-rule="evenodd" d="M1.793 1.79602C1.60553 1.98355 1.50021 2.23786 1.50021 2.50302C1.50021 2.76819 1.60553 3.02249 1.793 3.21002L6.586 8.00302L1.793 12.796C1.61084 12.9846 1.51005 13.2372 1.51233 13.4994C1.5146 13.7616 1.61977 14.0124 1.80518 14.1978C1.99059 14.3832 2.2414 14.4884 2.5036 14.4907C2.7658 14.493 3.0184 14.3922 3.207 14.21L8 9.41702L12.793 14.21C12.9816 14.3922 13.2342 14.493 13.4964 14.4907C13.7586 14.4884 14.0094 14.3832 14.1948 14.1978C14.3802 14.0124 14.4854 13.7616 14.4877 13.4994C14.49 13.2372 14.3892 12.9846 14.207 12.796L9.414 8.00302L14.207 3.21002C14.3892 3.02142 14.49 2.76882 14.4877 2.50662C14.4854 2.24442 14.3802 1.99361 14.1948 1.8082C14.0094 1.62279 13.7586 1.51763 13.4964 1.51535C13.2342 1.51307 12.9816 1.61386 12.793 1.79602L8 6.58902L3.207 1.79602C3.01947 1.60855 2.76516 1.50323 2.5 1.50323C2.23484 1.50323 1.98053 1.60855 1.793 1.79602Z" fill="black"/>
</svg>
