<svg width="16" height="17" viewBox="0 0 16 17" fill="none" xmlns="http://www.w3.org/2000/svg">
<path fill-rule="evenodd" clip-rule="evenodd" d="M8 0.00301416C7.73478 0.00301416 7.48043 0.108371 7.29289 0.295907C7.10536 0.483444 7 0.737798 7 1.00301V7.79301C7 8.26501 7.034 8.73801 7.1 9.20601L7.238 10.166L7.191 10.211L6.727 9.46901C6.32668 8.82992 5.85535 8.23816 5.322 7.70501L4.91 7.29201C4.72055 7.11436 4.46941 7.01738 4.20973 7.0216C3.95005 7.02581 3.70219 7.1309 3.51861 7.31461C3.33503 7.49832 3.23012 7.74625 3.22609 8.00594C3.22205 8.26562 3.31921 8.51669 3.497 8.70601L7.297 12.506C7.48466 12.6934 7.73904 12.7985 8.00421 12.7983C8.26937 12.7981 8.52361 12.6926 8.711 12.505L12.504 8.70501C12.6786 8.51502 12.773 8.26489 12.7675 8.0069C12.762 7.74891 12.6569 7.50305 12.4743 7.32071C12.2917 7.13837 12.0457 7.03368 11.7877 7.02852C11.5297 7.02336 11.2797 7.11813 11.09 7.29301L10.683 7.70001C10.1506 8.2317 9.68 8.82176 9.28 9.45901L8.808 10.212L8.762 10.165L8.898 9.20601C8.965 8.73801 8.999 8.26601 8.999 7.79201V1.00201C8.999 0.736798 8.89364 0.482444 8.70611 0.294907C8.51857 0.107371 8.26422 0.00201416 7.999 0.00201416L8 0.00301416ZM2 15.003C2 14.7378 2.10536 14.4834 2.29289 14.2959C2.48043 14.1084 2.73478 14.003 3 14.003H13C13.2652 14.003 13.5196 14.1084 13.7071 14.2959C13.8946 14.4834 14 14.7378 14 15.003C14 15.2682 13.8946 15.5226 13.7071 15.7101C13.5196 15.8977 13.2652 16.003 13 16.003H3C2.73478 16.003 2.48043 15.8977 2.29289 15.7101C2.10536 15.5226 2 15.2682 2 15.003Z" fill="black"/>
</svg>
