<svg width="16" height="16" viewBox="0 0 16 16" fill="none" xmlns="http://www.w3.org/2000/svg">
<path fill-rule="evenodd" clip-rule="evenodd" d="M0 8.00299C0 6.20299 2.857 2.00299 8 2.00299C13.143 2.00299 16 6.20299 16 8.00299C16 9.80299 13.143 14.003 8 14.003C2.857 14.003 0 9.80299 0 8.00299ZM8 12.003C9.06087 12.003 10.0783 11.5816 10.8284 10.8314C11.5786 10.0813 12 9.06386 12 8.00299C12 6.94212 11.5786 5.92471 10.8284 5.17456C10.0783 4.42442 9.06087 4.00299 8 4.00299C6.93913 4.00299 5.92172 4.42442 5.17157 5.17456C4.42143 5.92471 4 6.94212 4 8.00299C4 9.06386 4.42143 10.0813 5.17157 10.8314C5.92172 11.5816 6.93913 12.003 8 12.003ZM10.3 8.00299C10.3 8.30503 10.2405 8.60411 10.1249 8.88316C10.0093 9.16221 9.83992 9.41576 9.62635 9.62934C9.41277 9.84291 9.15922 10.0123 8.88017 10.1279C8.60112 10.2435 8.30204 10.303 8 10.303C7.69796 10.303 7.39888 10.2435 7.11983 10.1279C6.84078 10.0123 6.58723 9.84291 6.37365 9.62934C6.16008 9.41576 5.99066 9.16221 5.87508 8.88316C5.75949 8.60411 5.7 8.30503 5.7 8.00299C5.7 7.39299 5.94232 6.80798 6.37365 6.37665C6.80499 5.94531 7.39 5.70299 8 5.70299C8.61 5.70299 9.19501 5.94531 9.62635 6.37665C10.0577 6.80798 10.3 7.39299 10.3 8.00299Z" fill="black"/>
</svg>
