<svg width="16" height="16" viewBox="0 0 16 16" fill="none" xmlns="http://www.w3.org/2000/svg">
<path fill-rule="evenodd" clip-rule="evenodd" d="M3.80302 15.4L8.00002 12.847L12.197 15.4C12.3065 15.4665 12.4333 15.4992 12.5613 15.4939C12.6893 15.4886 12.8129 15.4456 12.9166 15.3702C13.0202 15.2949 13.0993 15.1906 13.1439 15.0705C13.1884 14.9503 13.1965 14.8197 13.167 14.695L12.037 9.915L15.761 6.712C15.8583 6.62849 15.9287 6.51807 15.9634 6.39463C15.9981 6.2712 15.9955 6.14026 15.9559 6.0183C15.9164 5.89634 15.8416 5.7888 15.7411 5.70921C15.6406 5.62962 15.5188 5.58153 15.391 5.571L10.495 5.169L8.60002 0.637C8.55066 0.518545 8.46735 0.417349 8.36057 0.346167C8.2538 0.274984 8.12834 0.237 8.00002 0.237C7.87169 0.237 7.74624 0.274984 7.63946 0.346167C7.53269 0.417349 7.44937 0.518545 7.40002 0.637L5.50502 5.169L0.610017 5.571C0.482463 5.58172 0.360914 5.62987 0.260614 5.7094C0.160314 5.78893 0.0857296 5.8963 0.0462135 6.01805C0.0066975 6.13981 0.00400962 6.27052 0.038487 6.39379C0.0729644 6.51706 0.143072 6.62741 0.240017 6.711L3.96402 9.914L2.83402 14.694C2.8043 14.8188 2.81216 14.9496 2.85661 15.0699C2.90107 15.1902 2.98012 15.2947 3.08383 15.3701C3.18753 15.4456 3.31125 15.4887 3.4394 15.494C3.56756 15.4994 3.69442 15.4666 3.80402 15.4H3.80302ZM8.52002 11.173C8.36334 11.0776 8.18345 11.0272 8.00002 11.0272C7.81659 11.0272 7.6367 11.0776 7.48002 11.173L5.06502 12.643L5.71502 9.891C5.75726 9.7128 5.74976 9.52643 5.69333 9.3522C5.6369 9.17798 5.53371 9.02259 5.39502 8.903L3.25002 7.06L6.06802 6.829C6.25056 6.81386 6.42544 6.74886 6.57357 6.64112C6.7217 6.53337 6.83739 6.38701 6.90802 6.218L8.00002 3.609L9.09002 6.218C9.16087 6.38696 9.27677 6.53321 9.42508 6.64079C9.57339 6.74836 9.74841 6.81312 9.93102 6.828L12.749 7.06L10.605 8.903C10.4663 9.02259 10.3631 9.17798 10.3067 9.3522C10.2503 9.52643 10.2428 9.7128 10.285 9.891L10.935 12.642L8.52002 11.173Z" fill="black"/>
</svg>
