<svg width="16" height="16" viewBox="0 0 16 16" fill="none" xmlns="http://www.w3.org/2000/svg">
<path d="M7.99998 12.847L3.80298 15.4C3.69346 15.4665 3.56672 15.4992 3.4387 15.4939C3.31067 15.4886 3.18707 15.4456 3.08342 15.3702C2.97977 15.2949 2.90069 15.1906 2.85614 15.0705C2.81158 14.9503 2.80352 14.8197 2.83298 14.695L3.96298 9.915L0.239979 6.711C0.142695 6.62749 0.0722821 6.51707 0.0375996 6.39363C0.00291714 6.2702 0.00551393 6.13926 0.0450633 6.0173C0.0846127 5.89534 0.159348 5.7878 0.259867 5.70821C0.360386 5.62862 0.482198 5.58053 0.609979 5.57L5.50598 5.168L7.39998 0.637C7.44934 0.518545 7.53265 0.417349 7.63942 0.346167C7.7462 0.274984 7.87165 0.237 7.99998 0.237C8.1283 0.237 8.25376 0.274984 8.36053 0.346167C8.46731 0.417349 8.55062 0.518545 8.59998 0.637L10.495 5.169L15.391 5.571C15.5185 5.58172 15.6401 5.62987 15.7404 5.7094C15.8407 5.78893 15.9153 5.8963 15.9548 6.01805C15.9943 6.13981 15.997 6.27052 15.9625 6.39379C15.928 6.51706 15.8579 6.62741 15.761 6.711L12.037 9.914L13.167 14.694C13.1967 14.8188 13.1888 14.9496 13.1444 15.0699C13.0999 15.1902 13.0209 15.2947 12.9172 15.3701C12.8135 15.4456 12.6897 15.4887 12.5616 15.494C12.4334 15.4994 12.3066 15.4666 12.197 15.4L7.99998 12.847Z" fill="black"/>
</svg>
